<svg width="24" height="24" viewBox="0 0 24 24" fill="none" xmlns="http://www.w3.org/2000/svg">
<g id="Twitter">
<path id="Shape" d="M20 8.00175V8L21.875 5.97672C22.1807 5.64695 21.9058 5.11563 21.46 5.17458L19.1108 5.48528C18.3775 4.57926 17.2564 4 16 4C13.7909 4 12 5.79086 12 8C12 8.52744 12.1021 9.03104 12.2876 9.49212C12.8942 11 11.5566 13.5 8.99979 16C7.86451 17.11 4.94613 17.4114 2.55791 17.1927C2.09318 17.1502 1.80143 17.6796 2.16081 17.9773C4.16334 19.6361 6.94072 20 9.49987 20C15.9992 20 20.499 14.501 20 8.00175Z" fill="#1C93D7"/>
<path id="Shape_2" d="M8.99932 16.0001C4.44839 14.6348 2.38277 9.54153 3.55651 5.62152C3.68428 5.19479 4.25972 5.21779 4.46011 5.61562C6.20805 9.08563 9.76874 9.50006 12.5 9.50006C18.5 9.50006 17 18.4003 8.99932 16.0001Z" fill="#1C93D7"/>
</g>
</svg>
